<?xml version="1.0" standalone="no"?><!DOCTYPE svg PUBLIC "-//W3C//DTD SVG 1.1//EN" "http://www.w3.org/Graphics/SVG/1.1/DTD/svg11.dtd"><svg t="1565849315482" class="icon" viewBox="0 0 1024 1024" version="1.1" xmlns="http://www.w3.org/2000/svg" p-id="1275" xmlns:xlink="http://www.w3.org/1999/xlink" width="200" height="200"><defs><style type="text/css"></style></defs><path d="M89.6 243.2h836.266667a21.333333 21.333333 0 1 0 0-42.666667h-836.266667a21.333333 21.333333 0 1 0 0 42.666667zM200.533333 320a21.333333 21.333333 0 1 0 0 42.666667h605.866667a21.333333 21.333333 0 1 0 0-42.666667h-605.866667zM925.866667 439.466667h-836.266667a21.333333 21.333333 0 1 0 0 42.666666h836.266667a21.333333 21.333333 0 1 0 0-42.666666zM806.4 593.066667a21.333333 21.333333 0 1 0 0-42.666667h-605.866667a21.333333 21.333333 0 1 0 0 42.666667h605.866667zM917.333333 669.866667h-827.733333a21.333333 21.333333 0 1 0 0 42.666666h827.733333a21.333333 21.333333 0 1 0 0-42.666666zM712.533333 789.333333h-418.133333a21.333333 21.333333 0 1 0 0 42.666667h418.133333a21.333333 21.333333 0 1 0 0-42.666667z" p-id="1276"></path></svg>