<?xml version="1.0" standalone="no"?><!DOCTYPE svg PUBLIC "-//W3C//DTD SVG 1.1//EN" "http://www.w3.org/Graphics/SVG/1.1/DTD/svg11.dtd"><svg t="1565849296468" class="icon" viewBox="0 0 1024 1024" version="1.1" xmlns="http://www.w3.org/2000/svg" p-id="1039" xmlns:xlink="http://www.w3.org/1999/xlink" width="200" height="200"><defs><style type="text/css"></style></defs><path d="M192 245.76h665.6c15.36 0 25.6-10.24 25.6-25.6s-10.24-25.6-25.6-25.6h-665.6c-15.36 0-25.6 10.24-25.6 25.6 0 12.8 10.24 25.6 25.6 25.6z m0 204.8h460.8c15.36 0 25.6-10.24 25.6-25.6s-10.24-25.6-25.6-25.6h-460.8c-15.36 0-25.6 10.24-25.6 25.6 0 12.8 10.24 25.6 25.6 25.6z m665.6 153.6h-665.6c-15.36 0-25.6 10.24-25.6 25.6s10.24 25.6 25.6 25.6h665.6c15.36 0 25.6-10.24 25.6-25.6s-12.8-25.6-25.6-25.6z m-281.6 204.8h-384c-15.36 0-25.6 10.24-25.6 25.6s10.24 25.6 25.6 25.6h384c15.36 0 25.6-10.24 25.6-25.6s-12.8-25.6-25.6-25.6z" p-id="1040"></path></svg>