<svg xmlns="http://www.w3.org/2000/svg" xmlns:xlink="http://www.w3.org/1999/xlink" width="28" height="28" viewBox="0 0 28 28"><defs><clipPath id="a"><rect width="28" height="28" fill="none"/></clipPath></defs><g transform="translate(-76 -78)"><path d="M383.185,291.716a1.039,1.039,0,0,0-.736-.089l-1.876.465a1.346,1.346,0,0,0-1.062,1.278v4.87a4.8,4.8,0,0,0-3.005-.721,4.364,4.364,0,0,0-4.06,3.868,3.95,3.95,0,0,0,1.21,3.124,4.716,4.716,0,0,0,3.29,1.319,4.355,4.355,0,0,0,4.511-4.166c0-.079,0-.157-.007-.222V293.9a.216.216,0,0,1,.174-.208l1.325-.328a.89.89,0,0,0,.685-1.1A.88.88,0,0,0,383.185,291.716Zm-3.682,9.948a2.562,2.562,0,1,1-2.554-2.358A2.464,2.464,0,0,1,379.5,301.664Z" transform="translate(-288.267 -207.163)" fill="#707070"/><g transform="translate(76 78)" clip-path="url(#a)"><path d="M24.168,28H3.653A4.5,4.5,0,0,1,1.18,26.67,4.614,4.614,0,0,1,0,24.044L.032,3.777A4.617,4.617,0,0,1,1.277,1.216,4.318,4.318,0,0,1,3.767,0h20.3a4.055,4.055,0,0,1,2.684,1.2A4.178,4.178,0,0,1,28,3.713l-.016,20.314a4.441,4.441,0,0,1-1.148,2.757A4.725,4.725,0,0,1,24.168,28ZM3.993,2.059a2.553,2.553,0,0,0-1.212.551,2.842,2.842,0,0,0-.647,1.216V24.093a2.354,2.354,0,0,0,.518,1.183,2.2,2.2,0,0,0,1.325.648l20.047.033a3.139,3.139,0,0,0,1.326-.616,2.29,2.29,0,0,0,.582-1.183l-.017-20.4a2.963,2.963,0,0,0-.646-1.151,2.353,2.353,0,0,0-1.116-.518L3.993,2.059Z" transform="translate(0 0)" fill="#707070"/></g></g></svg>