<svg xmlns="http://www.w3.org/2000/svg" xmlns:xlink="http://www.w3.org/1999/xlink" width="28" height="28" viewBox="0 0 28 28"><defs><clipPath id="a"><rect width="28" height="28" fill="none"/></clipPath></defs><g transform="translate(-38.938 -78)"><path d="M36.279,32,32,36.46v2.023L38.22,32H36.279Zm5.274,0L32,41.956v2.023L43.494,32H41.553Zm5.274,0L32,47.453v2.023L48.769,32ZM52.1,32,32,52.949v2.023L54.043,32Zm4.344,1.041a1.227,1.227,0,0,0-.267.207L33,57.4c-.022.023-.032.049-.052.073h1.923L56.446,34.993Zm0,5.424L38.2,57.477h1.941l16.3-16.988V38.466Zm0,5.5L43.478,57.477H45.42L56.446,45.986V43.962Zm0,5.5-7.693,8.018h1.941l5.752-5.995V49.459Z" transform="translate(8.818 47.313)" fill="#707070"/><g transform="translate(38.938 78)" clip-path="url(#a)"><path d="M24.168,28H3.653A4.5,4.5,0,0,1,1.18,26.67,4.614,4.614,0,0,1,0,24.044L.032,3.777A4.617,4.617,0,0,1,1.277,1.216,4.318,4.318,0,0,1,3.767,0h20.3a4.055,4.055,0,0,1,2.684,1.2A4.178,4.178,0,0,1,28,3.713l-.016,20.314a4.441,4.441,0,0,1-1.148,2.757A4.725,4.725,0,0,1,24.168,28ZM3.993,2.059a2.553,2.553,0,0,0-1.212.551,2.842,2.842,0,0,0-.647,1.216V24.093a2.354,2.354,0,0,0,.518,1.183,2.2,2.2,0,0,0,1.325.648l20.047.033a3.139,3.139,0,0,0,1.326-.616,2.29,2.29,0,0,0,.582-1.183l-.017-20.4a2.963,2.963,0,0,0-.646-1.151,2.353,2.353,0,0,0-1.116-.518L3.993,2.059Z" transform="translate(0 0)" fill="#707070"/></g></g></svg>