<svg xmlns="http://www.w3.org/2000/svg" xmlns:xlink="http://www.w3.org/1999/xlink" width="28" height="28" viewBox="0 0 28 28"><defs><clipPath id="a"><rect width="28" height="28" fill="none"/></clipPath></defs><g transform="translate(-142.988 -128.837)"><g transform="translate(142.988 128.837)" clip-path="url(#a)"><path d="M24.168,28H3.653A4.5,4.5,0,0,1,1.18,26.67,4.614,4.614,0,0,1,0,24.044L.032,3.777A4.617,4.617,0,0,1,1.277,1.216,4.318,4.318,0,0,1,3.767,0h20.3a4.055,4.055,0,0,1,2.684,1.2A4.178,4.178,0,0,1,28,3.713l-.016,20.314a4.441,4.441,0,0,1-1.148,2.757A4.725,4.725,0,0,1,24.168,28ZM3.993,2.059a2.553,2.553,0,0,0-1.212.551,2.842,2.842,0,0,0-.647,1.216V24.093a2.354,2.354,0,0,0,.518,1.183,2.2,2.2,0,0,0,1.325.648l20.047.033a3.139,3.139,0,0,0,1.326-.616,2.29,2.29,0,0,0,.582-1.183l-.017-20.4a2.963,2.963,0,0,0-.646-1.151,2.353,2.353,0,0,0-1.116-.518L3.993,2.059Z" transform="translate(0 0)" fill="#707070"/></g><path d="M121.777,99.808v1.529a4.9,4.9,0,0,0-2.325,4.151,5.058,5.058,0,0,0,10.113,0,4.9,4.9,0,0,0-2.272-4.119V99.808a6.269,6.269,0,0,1,3.677,5.672,6.437,6.437,0,0,1-12.87,0A6.269,6.269,0,0,1,121.777,99.808Zm2.758-1.608a.92.92,0,0,1,.92.92v4.6a.92.92,0,0,1-1.84,0v-4.6A.918.918,0,0,1,124.535,98.2Z" transform="translate(32.888 37.637)" fill="#707070"/></g></svg>