<?xml version="1.0" standalone="no"?><!DOCTYPE svg PUBLIC "-//W3C//DTD SVG 1.1//EN" "http://www.w3.org/Graphics/SVG/1.1/DTD/svg11.dtd"><svg t="1565849324023" class="icon" viewBox="0 0 1024 1024" version="1.1" xmlns="http://www.w3.org/2000/svg" p-id="1511" xmlns:xlink="http://www.w3.org/1999/xlink" width="200" height="200"><defs><style type="text/css"></style></defs><path d="M807.384615 374.153846c0-118.153846-94.523077-216.615385-206.76923-216.615384H275.692308c-21.661538 0-39.384615 17.723077-39.384616 39.384615v649.846154c0 21.661538 17.723077 39.384615 39.384616 39.384615h324.923077C712.861538 886.153846 807.384615 787.692308 807.384615 669.538462c0-57.107692-21.661538-108.307692-57.107692-147.692308 35.446154-39.384615 57.107692-90.584615 57.107692-147.692308zM600.615385 748.307692H374.153846v-157.538461h226.461539c37.415385 0 70.892308 37.415385 70.892307 78.769231s-33.476923 78.769231-70.892307 78.76923z m0-295.384615H374.153846v-157.538462h226.461539c37.415385 0 70.892308 37.415385 70.892307 78.769231s-33.476923 78.769231-70.892307 78.769231z" p-id="1512"></path></svg>