<svg xmlns="http://www.w3.org/2000/svg" width="27" height="27" viewBox="0 0 27 27"><g transform="translate(-84.403 -83.694)"><path d="M107.545,83.694H88.261A3.858,3.858,0,0,0,84.4,87.552v19.285a3.858,3.858,0,0,0,3.858,3.858h19.285a3.858,3.858,0,0,0,3.858-3.858V87.552A3.858,3.858,0,0,0,107.545,83.694Zm-3.916,1.992v7.588H92.187V85.686Zm5.846,21.155a1.924,1.924,0,0,1-1.922,1.925H88.265a1.93,1.93,0,0,1-1.935-1.925V87.553a1.936,1.936,0,0,1,1.935-1.932h1.93V93.34a1.924,1.924,0,0,0,1.921,1.927h11.577a1.927,1.927,0,0,0,1.929-1.927V85.621h1.926a1.93,1.93,0,0,1,1.928,1.932Z" transform="translate(0 0)" fill="#707070"/><path d="M544.157,209.253a1,1,0,0,0,1-1v-1.929a1,1,0,0,0-1.992,0v1.929A1,1,0,0,0,544.157,209.253Z" transform="translate(-444.322 -117.81)" fill="#707070"/></g></svg>