<?xml version="1.0" standalone="no"?><!DOCTYPE svg PUBLIC "-//W3C//DTD SVG 1.1//EN" "http://www.w3.org/Graphics/SVG/1.1/DTD/svg11.dtd"><svg t="1565849319886" class="icon" viewBox="0 0 1024 1024" version="1.1" xmlns="http://www.w3.org/2000/svg" p-id="1393" xmlns:xlink="http://www.w3.org/1999/xlink" width="200" height="200"><defs><style type="text/css"></style></defs><path d="M876.307692 827.076923h-728.615384c-15.753846 0-29.538462 13.784615-29.538462 29.538462v59.076923c0 15.753846 13.784615 29.538462 29.538462 29.538461h728.615384c15.753846 0 29.538462-13.784615 29.538462-29.538461v-59.076923c0-15.753846-13.784615-29.538462-29.538462-29.538462z m-378.092307-78.769231C350.523077 740.430769 236.307692 612.430769 236.307692 464.738462V196.923077c0-21.661538 17.723077-39.384615 39.384616-39.384615h39.384615c21.661538 0 39.384615 17.723077 39.384615 39.384615v269.784615c0 84.676923 63.015385 157.538462 147.692308 163.446154 92.553846 5.907692 167.384615-66.953846 167.384616-157.538461V196.923077c0-21.661538 17.723077-39.384615 39.384615-39.384615h39.384615c21.661538 0 39.384615 17.723077 39.384616 39.384615v275.692308c0 157.538462-131.938462 283.569231-289.476923 275.692307z" p-id="1394"></path></svg>