<svg xmlns="http://www.w3.org/2000/svg" xmlns:xlink="http://www.w3.org/1999/xlink" width="28" height="28" viewBox="0 0 28 28"><defs><clipPath id="a"><rect width="28" height="28" fill="none"/></clipPath></defs><g transform="translate(-113 -144)"><path d="M113.711,14.282H103V5.356h1.786V3.57a3.57,3.57,0,0,1,7.14-.07H110.14a1.785,1.785,0,0,0-3.569.07V5.356h2.93v.019h3V5.356h1.211v8.925Zm-8.926-7.142V12.5h7.141V7.141Zm3.57,3.57a.892.892,0,1,1,.893-.892A.845.845,0,0,1,108.355,10.711Z" transform="translate(19 151)" fill="#707070"/><g transform="translate(113 144)" clip-path="url(#a)"><path d="M24.168,28H3.653A4.5,4.5,0,0,1,1.18,26.67,4.614,4.614,0,0,1,0,24.044L.032,3.777A4.617,4.617,0,0,1,1.277,1.216,4.318,4.318,0,0,1,3.767,0h20.3a4.055,4.055,0,0,1,2.684,1.2A4.178,4.178,0,0,1,28,3.713l-.016,20.314a4.441,4.441,0,0,1-1.148,2.757A4.725,4.725,0,0,1,24.168,28ZM3.993,2.059a2.553,2.553,0,0,0-1.212.551,2.842,2.842,0,0,0-.647,1.216V24.093a2.354,2.354,0,0,0,.518,1.183,2.2,2.2,0,0,0,1.325.648l20.047.033a3.139,3.139,0,0,0,1.326-.616,2.29,2.29,0,0,0,.582-1.183l-.017-20.4a2.963,2.963,0,0,0-.646-1.151,2.353,2.353,0,0,0-1.116-.518L3.993,2.059Z" transform="translate(0 0)" fill="#707070"/></g></g></svg>